# xmcd
#
# Track frame offsets:
#	150
#	14403
#	26009
#	38793
#	50716
#	64966
#	80394
#	97689
#	109110
#	123750
#	138868
#	154184
#
# Disc length: 2295
#
# Revision: 1
# Processed by: cddbd v1.5.1PL0 Copyright (c) Steve Scherf et al.
# Submitted via: audiograbber 1.80.04
# Normalized: r0:DSETVAR1
#
DISCID=9308f50c
DTITLE=Various Artist - Holiday Soul
DYEAR=2001
DGENRE=Soul
TTITLE0=Aretha Franklin - Kissing By The Mistletoe
TTITLE1=Otis Redding - Merry Christmas Baby
TTITLE2=B.B. King - Christmas Celebration
TTITLE3=Louis Armstrong - Christmas Night In Harlem
TTITLE4=Lou Rawls - What Are You Doing New Year's Eve?
TTITLE5=Brook Benton - Soul Santa
TTITLE6=Wilson Pickett - Silver Bells
TTITLE7=The Sweet Inspirations - Every Day Will Be Like A Holiday
TTITLE8=Solomon Burke - Presents For Christmas
TTITLE9=Ella Fitzgerald - It Came Upon A Midnight Clear
TTITLE10=Otis Redding and Carla Thomas - New Year's Resolution
TTITLE11=Gladys Knight and The Pips - Do You Hear What I Hear?
EXTD=
EXTT0=
EXTT1=
EXTT2=
EXTT3=
EXTT4=
EXTT5=
EXTT6=
EXTT7=
EXTT8=
EXTT9=
EXTT10=
EXTT11=
PLAYORDER=
